<mxfile host="app.diagrams.net" modified="2023-10-26T06:48:23.874Z" agent="Mozilla/5.0 (Macintosh; Intel Mac OS X 10_15_7) AppleWebKit/537.36 (KHTML, like Gecko) Chrome/117.0.0.0 Safari/537.36" etag="orEWjviZN836r67rFuy3" version="22.0.6" type="github">
  <diagram name="第 1 页" id="YXIjgbwHRX-SyxE3HuqP">
    <mxGraphModel dx="954" dy="610" grid="1" gridSize="10" guides="1" tooltips="1" connect="1" arrows="1" fold="1" page="1" pageScale="1" pageWidth="827" pageHeight="1169" math="0" shadow="0">
      <root>
        <mxCell id="0" />
        <mxCell id="1" parent="0" />
        <mxCell id="l7gGtuODOj8nnnRLuv2Q-11" value="" style="edgeStyle=orthogonalEdgeStyle;rounded=0;orthogonalLoop=1;jettySize=auto;html=1;" edge="1" parent="1" source="l7gGtuODOj8nnnRLuv2Q-1" target="l7gGtuODOj8nnnRLuv2Q-3">
          <mxGeometry relative="1" as="geometry" />
        </mxCell>
        <mxCell id="l7gGtuODOj8nnnRLuv2Q-1" value="Log Dataset" style="rounded=0;whiteSpace=wrap;html=1;" vertex="1" parent="1">
          <mxGeometry x="60" y="400" width="120" height="60" as="geometry" />
        </mxCell>
        <mxCell id="l7gGtuODOj8nnnRLuv2Q-12" value="" style="edgeStyle=orthogonalEdgeStyle;rounded=0;orthogonalLoop=1;jettySize=auto;html=1;" edge="1" parent="1" source="l7gGtuODOj8nnnRLuv2Q-3" target="l7gGtuODOj8nnnRLuv2Q-5">
          <mxGeometry relative="1" as="geometry" />
        </mxCell>
        <mxCell id="l7gGtuODOj8nnnRLuv2Q-3" value="Preprocessing" style="ellipse;whiteSpace=wrap;html=1;" vertex="1" parent="1">
          <mxGeometry x="220" y="390" width="120" height="80" as="geometry" />
        </mxCell>
        <mxCell id="l7gGtuODOj8nnnRLuv2Q-13" value="" style="edgeStyle=orthogonalEdgeStyle;rounded=0;orthogonalLoop=1;jettySize=auto;html=1;" edge="1" parent="1" source="l7gGtuODOj8nnnRLuv2Q-5" target="l7gGtuODOj8nnnRLuv2Q-6">
          <mxGeometry relative="1" as="geometry" />
        </mxCell>
        <mxCell id="l7gGtuODOj8nnnRLuv2Q-5" value="Training" style="ellipse;whiteSpace=wrap;html=1;" vertex="1" parent="1">
          <mxGeometry x="380" y="390" width="120" height="80" as="geometry" />
        </mxCell>
        <mxCell id="l7gGtuODOj8nnnRLuv2Q-14" value="" style="edgeStyle=orthogonalEdgeStyle;rounded=0;orthogonalLoop=1;jettySize=auto;html=1;" edge="1" parent="1" source="l7gGtuODOj8nnnRLuv2Q-6" target="l7gGtuODOj8nnnRLuv2Q-7">
          <mxGeometry relative="1" as="geometry" />
        </mxCell>
        <mxCell id="l7gGtuODOj8nnnRLuv2Q-15" value="" style="edgeStyle=orthogonalEdgeStyle;rounded=0;orthogonalLoop=1;jettySize=auto;html=1;" edge="1" parent="1" source="l7gGtuODOj8nnnRLuv2Q-6" target="l7gGtuODOj8nnnRLuv2Q-8">
          <mxGeometry relative="1" as="geometry" />
        </mxCell>
        <mxCell id="l7gGtuODOj8nnnRLuv2Q-6" value="Iterative&lt;br&gt;Termination&lt;br&gt;Condition" style="rhombus;whiteSpace=wrap;html=1;" vertex="1" parent="1">
          <mxGeometry x="540" y="390" width="120" height="80" as="geometry" />
        </mxCell>
        <mxCell id="l7gGtuODOj8nnnRLuv2Q-7" value="Best Classifier" style="rounded=0;whiteSpace=wrap;html=1;" vertex="1" parent="1">
          <mxGeometry x="700" y="400" width="120" height="60" as="geometry" />
        </mxCell>
        <mxCell id="l7gGtuODOj8nnnRLuv2Q-8" value="Uncertainty-aware Pseudo-label Selection" style="ellipse;whiteSpace=wrap;html=1;" vertex="1" parent="1">
          <mxGeometry x="540" y="280" width="120" height="80" as="geometry" />
        </mxCell>
        <mxCell id="l7gGtuODOj8nnnRLuv2Q-16" value="" style="edgeStyle=orthogonalEdgeStyle;rounded=0;orthogonalLoop=1;jettySize=auto;html=1;" edge="1" parent="1" source="l7gGtuODOj8nnnRLuv2Q-9" target="l7gGtuODOj8nnnRLuv2Q-8">
          <mxGeometry relative="1" as="geometry" />
        </mxCell>
        <mxCell id="l7gGtuODOj8nnnRLuv2Q-9" value="Unlabeled Data" style="rounded=0;whiteSpace=wrap;html=1;" vertex="1" parent="1">
          <mxGeometry x="380" y="290" width="120" height="60" as="geometry" />
        </mxCell>
        <mxCell id="l7gGtuODOj8nnnRLuv2Q-18" value="" style="edgeStyle=orthogonalEdgeStyle;rounded=0;orthogonalLoop=1;jettySize=auto;html=1;" edge="1" parent="1" source="l7gGtuODOj8nnnRLuv2Q-10" target="l7gGtuODOj8nnnRLuv2Q-5">
          <mxGeometry relative="1" as="geometry" />
        </mxCell>
        <mxCell id="l7gGtuODOj8nnnRLuv2Q-10" value="Labeled Data" style="rounded=0;whiteSpace=wrap;html=1;" vertex="1" parent="1">
          <mxGeometry x="380" y="510" width="120" height="60" as="geometry" />
        </mxCell>
        <mxCell id="l7gGtuODOj8nnnRLuv2Q-17" value="" style="endArrow=classic;html=1;rounded=0;entryX=0;entryY=0.5;entryDx=0;entryDy=0;" edge="1" parent="1" target="l7gGtuODOj8nnnRLuv2Q-9">
          <mxGeometry width="50" height="50" relative="1" as="geometry">
            <mxPoint x="279.5" y="390" as="sourcePoint" />
            <mxPoint x="279.5" y="330" as="targetPoint" />
            <Array as="points">
              <mxPoint x="280" y="320" />
            </Array>
          </mxGeometry>
        </mxCell>
        <mxCell id="l7gGtuODOj8nnnRLuv2Q-19" value="" style="endArrow=classic;html=1;rounded=0;entryX=0;entryY=0.5;entryDx=0;entryDy=0;" edge="1" parent="1" target="l7gGtuODOj8nnnRLuv2Q-10">
          <mxGeometry width="50" height="50" relative="1" as="geometry">
            <mxPoint x="279.5" y="470" as="sourcePoint" />
            <mxPoint x="279.5" y="570" as="targetPoint" />
            <Array as="points">
              <mxPoint x="280" y="540" />
            </Array>
          </mxGeometry>
        </mxCell>
        <mxCell id="l7gGtuODOj8nnnRLuv2Q-20" value="" style="endArrow=classic;html=1;rounded=0;exitX=1;exitY=0.5;exitDx=0;exitDy=0;entryX=1;entryY=0.5;entryDx=0;entryDy=0;" edge="1" parent="1" source="l7gGtuODOj8nnnRLuv2Q-8" target="l7gGtuODOj8nnnRLuv2Q-10">
          <mxGeometry width="50" height="50" relative="1" as="geometry">
            <mxPoint x="670" y="320" as="sourcePoint" />
            <mxPoint x="510" y="540" as="targetPoint" />
            <Array as="points">
              <mxPoint x="840" y="320" />
              <mxPoint x="840" y="540" />
            </Array>
          </mxGeometry>
        </mxCell>
        <mxCell id="l7gGtuODOj8nnnRLuv2Q-21" value="no" style="text;html=1;strokeColor=none;fillColor=none;align=center;verticalAlign=middle;whiteSpace=wrap;rounded=0;" vertex="1" parent="1">
          <mxGeometry x="580" y="360" width="60" height="30" as="geometry" />
        </mxCell>
        <mxCell id="l7gGtuODOj8nnnRLuv2Q-22" value="yes" style="text;html=1;strokeColor=none;fillColor=none;align=center;verticalAlign=middle;whiteSpace=wrap;rounded=0;" vertex="1" parent="1">
          <mxGeometry x="650" y="400" width="60" height="30" as="geometry" />
        </mxCell>
        <mxCell id="l7gGtuODOj8nnnRLuv2Q-23" value="high confidence pseudo-labels" style="text;whiteSpace=wrap;" vertex="1" parent="1">
          <mxGeometry x="665" y="290" width="190" height="40" as="geometry" />
        </mxCell>
      </root>
    </mxGraphModel>
  </diagram>
</mxfile>
